<?xml version="1.0" encoding="iso-8859-1"?>
<!-- Generator: Adobe Illustrator 19.0.0, SVG Export Plug-In . SVG Version: 6.00 Build 0)  -->
<svg version="1.1" id="Capa_1" xmlns="http://www.w3.org/2000/svg" xmlns:xlink="http://www.w3.org/1999/xlink" x="0px" y="0px"
	 viewBox="0 0 512 512" style="enable-background:new 0 0 512 512;" xml:space="preserve">
<polyline style="fill:#A15443;" points="47.278,90.547 10,90.547 10,448.447 256,448.447 256,367.843 "/>
<polyline style="fill:#BA7052;" points="256.006,367.849 256.006,367.85 256,367.843 256,448.447 502,448.447 502,90.547 
	464.722,90.547 "/>
<polyline style="fill:#E2C8BA;" points="47.278,347.805 47.278,396.677 464.722,396.677 464.722,347.805 "/>
<path style="fill:#FFF2E9;" d="M256.006,367.85c-11.89-12.595-28.601-20.045-46.741-20.045H47.278V63.566
	c0-0.006,0.005-0.012,0.012-0.012h161.976c25.814,0,46.741,20.937,46.741,46.765"/>
<path style="fill:#E2C8BA;" d="M256.006,277V110.32c0-25.828,20.927-46.765,46.741-46.765h161.964c0.006,0,0.011,0.005,0.011,0.01
	v284.24H302.747c-18.141,0-34.85,7.448-46.741,20.043"/>
<path d="M256,325.551c-0.65,0-1.31-0.07-1.95-0.2s-1.27-0.32-1.87-0.57c-0.61-0.25-1.19-0.56-1.73-0.92
	c-0.55-0.359-1.06-0.779-1.52-1.239c-0.46-0.46-0.88-0.971-1.24-1.52c-0.36-0.54-0.67-1.12-0.92-1.73
	c-0.25-0.601-0.45-1.23-0.57-1.87c-0.13-0.641-0.2-1.3-0.2-1.95s0.07-1.31,0.2-1.96c0.12-0.63,0.32-1.26,0.57-1.87
	c0.25-0.6,0.56-1.18,0.92-1.72c0.36-0.55,0.78-1.06,1.24-1.521c0.46-0.46,0.97-0.88,1.52-1.25c0.54-0.359,1.12-0.67,1.73-0.92
	c0.6-0.25,1.23-0.44,1.87-0.569c1.29-0.261,2.62-0.261,3.9,0c0.64,0.13,1.27,0.319,1.869,0.569c0.61,0.25,1.19,0.56,1.73,0.92
	c0.55,0.37,1.06,0.79,1.52,1.25c0.461,0.46,0.881,0.971,1.24,1.521c0.36,0.54,0.67,1.12,0.92,1.72c0.25,0.61,0.45,1.24,0.57,1.87
	c0.13,0.65,0.2,1.31,0.2,1.96s-0.07,1.31-0.2,1.95s-0.32,1.27-0.57,1.87c-0.25,0.609-0.56,1.19-0.92,1.73
	c-0.359,0.55-0.779,1.061-1.24,1.52c-0.46,0.46-0.97,0.88-1.52,1.239c-0.54,0.36-1.12,0.67-1.73,0.92
	c-0.6,0.25-1.229,0.44-1.869,0.57C257.31,325.48,256.65,325.551,256,325.551z"/>
<rect x="342.78" y="120.131" style="fill:#E24C39;" width="37.39" height="29.686"/>
<path style="fill:#FFF2E9;" d="M380.225,173.649V149.82h-37.507v23.829c-15.638,4.746-28.762,15.273-36.889,29.094h111.284
	C408.986,188.922,395.862,178.395,380.225,173.649z"/>
<path style="fill:#26937E;" d="M305.829,202.744c-5.636,9.586-8.87,20.756-8.87,32.681c0,35.648,28.883,64.546,64.512,64.546
	s64.512-28.898,64.512-64.546c0-11.925-3.233-23.095-8.87-32.681L305.829,202.744L305.829,202.744z"/>
<path d="M502,80.547h-27.277V63.565c0-5.522-4.488-10.011-10.011-10.011H302.747c-19.367,0-36.498,9.757-46.741,24.615
	c-10.243-14.858-27.374-24.615-46.741-24.615H47.289c-5.523,0-10.012,4.489-10.012,10.012v16.98H10c-5.523,0-10,4.478-10,10v357.9
	c0,5.523,4.477,10,10,10h492c5.522,0,10-4.477,10-10v-357.9C512,85.024,507.522,80.547,502,80.547z M57.277,357.806h151.988
	c13.855,0,26.758,5.017,36.734,14.206v14.665H57.277V357.806z M266,372.023c9.979-9.197,22.886-14.218,36.747-14.218h151.976v28.871
	H266V372.023z M57.277,73.555h151.988c20.259,0,36.741,16.492,36.741,36.765v166.681c0,5.523,4.477,10,10,10c5.523,0,10-4.477,10-10
	V110.396c0-0.025,0.001-0.051,0.001-0.076c0-0.035,0-0.069,0-0.103c0.056-20.225,16.516-36.662,36.741-36.662h151.976v264.251
	H302.747c-17.076,0-33.641,5.909-46.741,16.46c-13.1-10.551-29.664-16.46-46.74-16.46H57.277V73.555z M20,100.547h17.277v296.13
	c0,5.522,4.477,10,10,10H246v31.77H20V100.547z M492,438.447H266v-31.77h198.723c5.522,0,10-4.478,10-10v-296.13H492V438.447z"/>
<path d="M361.472,309.971c41.085,0,74.511-33.441,74.511-74.546c0-13.295-3.544-26.349-10.249-37.75
	c-0.024-0.041-0.049-0.082-0.073-0.122c-8.251-13.973-20.659-24.75-35.435-30.921v-16.811c0-0.366-0.02-0.728-0.059-1.083v-18.631
	c5.173-0.383,9.252-4.701,9.252-9.972c0-5.522-4.478-10-10-10h-55.893c-5.522,0-10,4.478-10,10c0,5.271,4.079,9.589,9.252,9.972
	v18.622c-0.039,0.359-0.06,0.723-0.06,1.092v16.811c-14.819,6.189-27.257,17.012-35.509,31.044c-0.02,0.033-0.039,0.067-0.058,0.1
	c-6.667,11.38-10.191,24.395-10.191,37.65C286.96,276.529,320.386,309.971,361.472,309.971z M361.472,289.971
	c-30.058,0-54.512-24.469-54.512-54.546c0-7.86,1.69-15.602,4.923-22.681h99.178c3.232,7.077,4.922,14.818,4.922,22.681
	C415.982,265.502,391.529,289.971,361.472,289.971z M370.166,130.134v9.687h-17.389v-9.687H370.166z M345.622,183.219
	c4.215-1.279,7.096-5.165,7.096-9.569v-13.829h17.507v13.829c0,4.404,2.882,8.29,7.096,9.569c6.658,2.02,12.789,5.266,18.126,9.525
	h-67.949C332.834,188.484,338.964,185.239,345.622,183.219z"/>
<rect x="94.28" y="122.971" style="fill:#F0CC67;" width="111.06" height="175.35"/>
<path d="M205.334,308.326H94.279c-5.523,0-10-4.478-10-10V122.972c0-5.523,4.477-10,10-10h111.056c5.523,0,10,4.477,10,10v175.354
	C215.334,303.849,210.857,308.326,205.334,308.326z M104.279,288.326h91.056V132.972h-91.056
	C104.279,132.972,104.279,288.326,104.279,288.326z"/>
<g>
</g>
<g>
</g>
<g>
</g>
<g>
</g>
<g>
</g>
<g>
</g>
<g>
</g>
<g>
</g>
<g>
</g>
<g>
</g>
<g>
</g>
<g>
</g>
<g>
</g>
<g>
</g>
<g>
</g>
</svg>
