<svg viewBox="0 0 512.00116 512" xmlns="http://www.w3.org/2000/svg"><path d="m76.070312 101.097656c7.925782-7.925781 22.273438-8.246094 30.984376-14.785156 8.925781-6.699219 13.277343-20.359375 22.871093-25.605469 9.757813-5.335937 23.617188-1.597656 33.898438-5.421875 10.394531-3.871094 18.4375-15.746094 29.1875-18.074218 10.8125-2.34375 23.058593 5.148437 34.054687 4.367187 11.011719-.785156 22.074219-9.929687 33.089844-9.144531 9.515625.675781 18.027344 8.707031 27.152344 12.375 2.339844.941406 3.640625 3.457031 3.152344 5.929687l-38.144532 193.542969c-1.488281 7.5625 5.164063 14.214844 12.726563 12.726562l197.601562-38.945312c1.292969-.253906 2.503907.605469 2.78125 1.894531 0 .007813.003907.015625.003907.023438 2.34375 10.816406 12.957031 20.46875 13.738281 31.464843.785156 11.015626-8.359375 22.074219-9.144531 33.089844-.78125 10.996094 6.707031 23.238282 4.367187 34.054688-2.328125 10.746094-14.203125 18.792968-18.070313 29.1875-3.828124 10.28125-.089843 24.140625-5.425781 33.902344-5.246093 9.59375-18.90625 13.941406-25.605469 22.871093-6.539062 8.710938-6.859374 23.058594-14.785156 30.980469-7.921875 7.925781-22.273437 8.25-30.984375 14.785156-8.925781 6.703125-13.277343 20.363282-22.867187 25.605469-9.761719 5.335937-23.621094 1.597656-33.902344 5.425781-10.394531 3.867188-18.4375 15.742188-29.1875 18.070313-10.8125 2.34375-23.058594-5.148438-34.054688-4.363281-11.015624.78125-22.074218 9.925781-33.089843 9.144531-10.992188-.78125-20.648438-11.398438-31.460938-13.738281-10.75-2.328126-23.933593 3.347656-34.328125-.519532-10.28125-3.828125-16.546875-16.726562-26.304687-22.0625-9.59375-5.242187-23.84375-3.527344-32.773438-10.226562-8.710937-6.539063-11.074219-20.675782-18.996093-28.601563-7.921876-7.925781-22.0625-10.289062-28.601563-18.996093-6.699219-8.929688-4.984375-23.179688-10.226563-32.773438-5.335937-9.757812-18.234374-16.023438-22.058593-26.304688-3.871094-10.394531 1.804687-23.578124-.523438-34.328124-2.339843-10.8125-12.957031-20.464844-13.738281-31.460938-.78125-11.015625 8.363281-22.078125 9.144531-33.089844.78125-10.996094-6.707031-23.242187-4.367187-34.054687 2.328125-10.75 14.203125-18.796875 18.074218-29.1875 3.828126-10.28125.089844-24.140625 5.425782-33.902344 5.242187-9.59375 18.902344-13.945313 25.601562-22.871094 6.539063-8.710937 6.859375-23.0625 14.785156-30.984375zm0 0" fill="#ffd782"/><path d="m180.628906 489.9375c-10.28125-3.828125-16.546875-16.726562-26.304687-22.058594-9.59375-5.246094-23.84375-3.527344-32.773438-10.230468-8.707031-6.535157-11.070312-20.675782-18.996093-28.601563-7.925782-7.921875-22.0625-10.285156-28.601563-18.996094-6.699219-8.925781-4.984375-23.179687-10.226563-32.769531-5.332031-9.761719-18.234374-16.027344-22.058593-26.304688-3.871094-10.394531 1.804687-23.578124-.523438-34.328124-2.339843-10.8125-12.953125-20.46875-13.738281-31.460938-.78125-11.015625 8.363281-22.078125 9.144531-33.09375.78125-10.992188-6.707031-23.238281-4.367187-34.050781 2.328125-10.75 14.203125-18.796875 18.074218-29.191407 3.828126-10.28125.089844-24.140624 5.425782-33.898437 5.242187-9.59375 18.902344-13.945313 25.605468-22.875 6.535157-8.707031 6.859376-23.058594 14.785157-30.980469 7.921875-7.925781 22.269531-8.25 30.980469-14.785156 8.929687-6.703125 13.277343-20.363281 22.871093-25.605469 9.761719-5.335937 23.621094-1.597656 33.898438-5.421875 9.054687-3.371094 16.324219-12.808594 25.152343-16.726562-5.449218-1.371094-10.867187-2.453125-15.964843-1.347656-10.746094 2.328124-18.792969 14.203124-29.1875 18.074218-10.277344 3.824219-24.136719.089844-33.898438 5.421875-9.59375 5.242188-13.945312 18.902344-22.871093 25.605469-8.710938 6.535156-23.058594 6.859375-30.984376 14.785156-7.921874 7.921875-8.246093 22.273438-14.78125 30.980469-6.703124 8.929687-20.363281 13.28125-25.605468 22.875-5.335938 9.757813-1.597656 23.617187-5.425782 33.898437-3.871093 10.394532-15.746093 18.441407-18.074218 29.191407-2.339844 10.8125 5.148437 23.058593 4.367187 34.050781-.78125 11.015625-9.925781 22.078125-9.144531 33.09375.78125 10.992188 11.398438 20.648438 13.738281 31.460938 2.328125 10.75-3.347656 23.933593.523438 34.328124 3.824219 10.277344 16.722656 16.542969 22.058593 26.304688 5.242188 9.589844 3.527344 23.84375 10.226563 32.769531 6.539063 8.710938 20.675781 11.074219 28.601563 18.996094 7.925781 7.925781 10.285156 22.0625 18.996093 28.601563 8.929688 6.703124 23.179688 4.984374 32.773438 10.230468 9.761719 5.332032 16.023437 18.234375 26.304687 22.058594 6.417969 2.390625 13.902344 1.140625 21.222656.382812-.410156-.125-.824218-.234374-1.222656-.382812zm0 0" fill="#fdbd40"/><path d="m252.316406 244.28125 31.386719-159.25-.773437-.199219c-60.789063-13.324219-126.882813 3.648438-174.15625 50.917969-73.75 73.75-73.75 193.324219 0 267.078125 73.75 73.75 193.324218 73.75 267.078124 0 47.941407-47.945313 64.707032-115.25 50.316407-176.742187l-.140625-.804688-160.988282 31.726562c-7.558593 1.488282-14.210937-5.164062-12.722656-12.726562zm0 0" fill="#d3843d"/><path d="m326.023438 20.09375c1.40625-7.125 6.472656-8.363281 8.714843-8.558594.335938-.007812.675781-.015625 1.015625-.03125.039063.003906.066406.003906.066406.003906v-.003906c8.847657-.335937 18.410157-2.96875 26.339844-.019531 10.203125 3.800781 16.421875 16.605469 26.113282 21.902344 9.523437 5.207031 23.671874 3.503906 32.535156 10.152343 8.644531 6.492188 10.992187 20.527344 18.859375 28.394532 7.863281 7.867187 21.902343 10.210937 28.390625 18.859375 6.652344 8.863281 4.949218 23.011719 10.152344 32.535156 5.296874 9.6875 18.105468 15.910156 21.902343 26.113281 2.859375 7.675782.476563 16.886719.019531 25.496094-.191406 3.679688-2.796874 6.785156-6.414062 7.496094l-192.023438 37.84375c-7.507812 1.480468-14.113281-5.125-12.632812-12.628906zm0 0" fill="#ffd782"/><path d="m309.0625 207.648438 36.964844-187.554688c1.402344-7.125 6.46875-8.363281 8.710937-8.558594.335938-.007812.675781-.015625 1.015625-.03125.042969.003906.066406.003906.066406.003906l.003907-.003906c1.703125-.066406 3.433593-.214844 5.175781-.394531-7.691406-2.316406-16.757812.074219-25.179688.394531v.003906s-.027343 0-.066406-.003906c-.339844.011719-.679687.023438-1.015625.03125-2.242187.195313-7.308593 1.433594-8.714843 8.558594l-36.960938 187.554688c-1.480469 7.503906 5.128906 14.109374 12.632812 12.628906l11.15625-2.199219c-2.933593-2.378906-4.609374-6.265625-3.789062-10.429687zm0 0" fill="#fdbd40"/><path d="m301.695312 220.277344 164.6875-32.453125c-7.960937-33.515625-24.992187-65.316407-51.136718-91.460938-26.820313-26.820312-59.585938-44.066406-94.050782-51.753906l-32.132812 163.039063c-1.480469 7.503906 5.125 14.109374 12.632812 12.628906zm0 0" fill="#d3843d"/><path d="m309.0625 207.648438 31.09375-157.773438c-6.246094-2.082031-12.574219-3.839844-18.960938-5.265625l-32.132812 163.039063c-1.480469 7.503906 5.128906 14.109374 12.632812 12.628906l11.15625-2.199219c-2.933593-2.378906-4.609374-6.265625-3.789062-10.429687zm0 0" fill="#c65c38"/><path d="m128.773438 402.828125c-73.75-73.753906-73.75-193.328125 0-267.078125 34.324218-34.324219 78.570312-52.65625 123.507812-55.03125-51.597656-2.710938-104.097656 15.621094-143.507812 55.03125-73.75 73.75-73.75 193.324219 0 267.078125 39.421874 39.417969 91.933593 57.761719 143.539062 55.039063-44.945312-2.367188-89.207031-20.710938-123.539062-55.039063zm0 0" fill="#c65c38"/><path d="m510.140625 145.234375c-4.601563-12.363281-18.027344-19.085937-22.507813-27.285156-4.378906-8.011719-2.78125-22.976563-10.808593-33.675781-7.875-10.488282-22.628907-13.128907-29.296875-19.796876-6.671875-6.671874-9.308594-21.421874-19.800782-29.296874-10.699218-8.03125-25.664062-6.429688-33.675781-10.8125-8.195312-4.476563-14.917969-17.902344-27.285156-22.507813-9.96875-3.710937-20.777344-.773437-29.429687-.449219-.019532 0-.035157.003906-.050782.003906-9.121094.320313-15.203125 6.117188-16.890625 14.695313-1.566406 7.9375-34.539062 175.238281-37.234375 188.921875-2.519531 12.789062 8.757813 24.050781 21.535156 21.535156 6.4375-1.269531 181.050782-35.683594 193.425782-38.121094 6.980468-1.378906 12.125-7.347656 12.5-14.515624.457031-8.515626 3.128906-19.003907-.480469-28.695313zm-208.347656 66.613281c-2.316407.457032-4.375-1.574218-3.914063-3.917968l30.371094-154.09375c62.398438 16.457031 111.796875 65.078124 129.203125 127.332031zm193.851562-38.707031c-.015625.253906-.148437.53125-.425781.585937l-23.011719 4.535157c-18.585937-68.042969-72.492187-121.441407-141.050781-139.167969l3.957031-20.082031c.59375-3.019531 1.761719-2.507813 3.136719-2.625 8.699219-.375 17.484375-2.625 23.285156-.464844 7.867188 2.929687 14.347656 15.613281 25.320313 21.609375 10.84375 5.929688 24.980469 4.476562 31.867187 9.648438 6.644532 4.984374 9.308594 19.011718 18.195313 27.902343 8.894531 8.894531 22.921875 11.554688 27.90625 18.199219 5.175781 6.894531 3.714843 21.015625 9.644531 31.863281 6 10.972657 18.683594 17.457031 21.613281 25.324219 2.109375 5.664062.011719 14.199219-.4375 22.671875zm0 0"/><path d="m477.648438 285.324219c.210937-2.96875 1.378906-6.25 2.492187-9.070313 1.523437-3.851562-.367187-8.207031-4.21875-9.730468-3.851563-1.519532-8.210937.367187-9.734375 4.21875-1.53125 3.882812-3.144531 8.519531-3.503906 13.519531-.878906 12.390625 6.320312 24.683593 4.519531 32.996093-1.78125 8.238282-13.417969 16.464844-17.769531 28.160157-4.320313 11.605469-.867188 25.402343-4.976563 32.917969-4.007812 7.332031-17.5 11.941406-25.023437 21.96875-7.402344 9.863281-7.957032 24.050781-14.089844 30.183593-6.136719 6.132813-20.316406 6.683594-30.183594 14.089844-10.027344 7.523437-14.636718 21.011719-21.964844 25.019531-7.507812 4.105469-21.324218.660156-32.917968 4.976563-11.703125 4.355469-19.921875 15.988281-28.160156 17.773437-8.304688 1.800782-20.589844-5.398437-33-4.519531-12.382813.878906-23.539063 9.726563-32.027344 9.144531-8.4375-.597656-18.222656-10.949218-30.40625-13.585937-12.113282-2.625-25.300782 2.757812-33.296875-.21875-7.867188-2.929688-14.351563-15.617188-25.324219-21.613281-10.84375-5.925782-24.976562-4.472657-31.867188-9.644532-6.644531-4.988281-9.300781-19.007812-18.195312-27.90625-8.890625-8.890625-22.917969-11.550781-27.90625-18.195312-5.167969-6.886719-3.71875-21.023438-9.644531-31.867188-5.996094-10.972656-18.679688-17.453125-21.613281-25.324218-2.976563-8 2.410156-21.164063-.21875-33.296876-2.636719-12.179687-12.988282-21.972656-13.585938-30.40625-.601562-8.480468 8.261719-19.589843 9.144531-32.027343.878907-12.394531-6.316406-24.683594-4.519531-33 1.785156-8.242188 13.417969-16.457031 17.773438-28.15625 4.320312-11.605469.867187-25.402344 4.976562-32.921875 4.007812-7.332032 17.496094-11.9375 25.023438-21.964844 7.402343-9.863281 7.957031-24.050781 14.089843-30.183594 6.136719-6.136718 20.316407-6.683594 30.179688-14.089844 10.03125-7.527343 14.636719-21.015624 21.96875-25.019531 7.515625-4.109375 21.3125-.65625 32.917969-4.980469 11.695312-4.351562 19.921874-15.984374 28.160156-17.769531 8.316406-1.796875 20.589844 5.394531 32.996094 4.515625 12.402343-.878906 23.5625-9.734375 32.027343-9.144531 6.667969.476563 14.425781 7.167969 23.136719 11.105469l-4.46875 22.683594c-63.871094-11.480469-128.726562 8.695312-174.824219 54.792968-77.09375 77.097656-77.09375 202.539063 0 279.636719 30.183594 30.183594 68.402344 49.457031 110.519531 55.734375 4.101563.613281 7.914063-2.214844 8.523438-6.316406.609375-4.09375-2.214844-7.910156-6.3125-8.523438-38.914062-5.796875-74.230469-23.609375-102.121094-51.503906-71.246094-71.246094-71.246094-187.171875 0-258.417969 42.539063-42.539062 102.363282-61.210937 161.3125-50.695312l-30.433594 154.425781c-2.53125 12.847656 8.804688 24.035156 21.535157 21.53125l156.199219-30.785156c21.535156 111.144531-61.726563 213.375-172.863282 217.332031-4.140625.148437-7.375 3.625-7.230468 7.761719.144531 4.050781 3.472656 7.234375 7.492187 7.234375.089844 0 .179687 0 .269531-.003907 120.324219-4.285156 210.21875-114.882812 187.027344-235.222656l22.128906-4.359375c2.152344 5.691407 5.609375 10.765625 8.339844 15.605469 2.039062 3.605469 6.613281 4.875 10.222656 2.839844 3.605469-2.039063 4.875-6.617188 2.839844-10.222656-3.269531-5.785157-7.085938-11.230469-8.15625-16.132813-.003906-.015625-.003906-.023437-.007812-.035156-1.152344-5.355469-6.230469-8.722657-11.5625-7.675781l-197.601563 38.945312c-2.332031.453125-4.375-1.582031-3.914063-3.914062l38.140626-193.546876c1.1875-6.035156-2.054688-12.0625-7.710938-14.339843-8.410156-3.378907-17.707031-12.0625-29.421875-12.898438-13.21875-.929687-24.945313 8.492188-34.152344 9.144531-9.1875.660157-22.125-7.023437-35.109375-4.214843-12.917968 2.800781-21.496094 15.125-30.214844 18.375-8.597656 3.199219-23.175781-.527344-34.882812 5.871093-11.546875 6.3125-16.269531 20.550782-23.777344 26.1875-7.257812 5.445313-22.300781 6-31.78125 15.480469-9.484375 9.480469-10.03125 24.523438-15.480468 31.785157-5.632813 7.503906-19.875 12.230468-26.1875 23.773437-6.402344 11.707031-2.675782 26.285156-5.875 34.882813-3.246094 8.71875-15.574219 17.300781-18.371094 30.214843-2.8125 12.980469 4.867187 25.90625 4.214844 35.113281-.65625 9.21875-10.085938 20.925782-9.1445318 34.152344.9374998 13.207032 11.9257818 23.457032 13.8867188 32.519532 1.949219 8.988281-3.820313 22.882812.824219 35.355468 4.601562 12.363282 18.027344 19.085938 22.507812 27.285156 4.378906 8.007813 2.78125 22.976563 10.8125 33.675782 7.871094 10.488281 22.628906 13.132812 29.292969 19.796875 6.667969 6.667969 9.308594 21.425781 19.800781 29.296875 10.695313 8.027344 25.667969 6.433594 33.675782 10.808594 8.195312 4.480468 14.921874 17.90625 27.285156 22.511718 12.476562 4.644532 26.355468-1.128906 35.355468.820313 9.507813 2.058593 20.183594 13.957031 34.386719 13.957031 12.464844 0 23.496094-8.585938 32.289063-9.210938 9.210937-.652343 22.132812 7.023438 35.109375 4.214844 12.914062-2.796875 21.496093-15.128906 30.214843-18.375 8.597657-3.199218 23.175782.527344 34.882813-5.871094 11.546875-6.3125 16.265625-20.554687 23.773437-26.1875 7.261719-5.449218 22.300782-5.996093 31.785157-15.480468 9.488281-9.488282 10.027343-24.519532 15.480469-31.785156 5.632812-7.507813 19.878906-12.230469 26.1875-23.777344 6.398437-11.707032 2.671874-26.28125 5.871093-34.878906 3.25-8.71875 15.578125-17.304688 18.375-30.21875 2.8125-12.980469-4.867187-25.898438-4.214843-35.105469zm0 0"/></svg>